<svg xmlns="http://www.w3.org/2000/svg" width="100" height="53" viewBox="0 0 100 53"><path d="M22.1 11.4c0 6.1-4.8 11.4-11 11.4 -6.2 0-11-5.2-11-11.4C0 5.2 4.8 0 11 0S22.1 5.2 22.1 11.4zM11 15.8c2.4 0 4.1-2 4.1-4.5 0-2.2-1.4-4.5-4.2-4.5 -2.2 0-4.1 1.9-4.1 4.5C6.9 13.9 8.7 15.8 11 15.8z"/><path d="M30.1 0.5l6.2 10.9 0.1-0.1V2.4c0-0.6-0.2-1.3-0.7-2h8c-0.5 0.6-0.7 1.4-0.7 2v17.9c0 0.6 0.2 1.3 0.7 2h-7L30.5 11l-0.1 0.1v9.2c0 0.6 0.2 1.3 0.7 2h-8c0.5-0.6 0.7-1.4 0.7-2V2.4c0-0.6-0.2-1.3-0.7-2H30.1z"/><path d="M53.7 0.5c-0.5 0.6-0.7 1.4-0.7 2v17.9c0 0.6 0.2 1.3 0.7 2h-8.3c0.5-0.6 0.7-1.4 0.7-2V2.4c0-0.6-0.2-1.3-0.7-2H53.7z"/><path d="M76.9 11.4c0 6.1-4.8 11.4-11 11.4 -6.2 0-11-5.2-11-11.4 0-6.1 4.8-11.4 11-11.4S76.9 5.2 76.9 11.4zM65.9 15.8c2.4 0 4.1-2 4.1-4.5 0-2.2-1.4-4.5-4.2-4.5 -2.2 0-4.1 1.9-4.1 4.5C61.8 13.9 63.5 15.8 65.9 15.8z"/><path d="M84.9 0.5l6.2 10.9 0.1-0.1V2.4c0-0.6-0.2-1.3-0.7-2h8c-0.5 0.6-0.7 1.4-0.7 2v17.9c0 0.6 0.2 1.3 0.7 2h-7L85.3 11l-0.1 0.1v9.2c0 0.6 0.2 1.3 0.7 2h-8c0.5-0.6 0.7-1.4 0.7-2V2.4c0-0.6-0.2-1.3-0.7-2H84.9z"/><path d="M1 30.6c0.6 0.5 1.2 0.7 2 0.7s3.4-0.7 5.3-0.7c5.7 0 10.3 5.5 10.3 11.1 0 6.3-4.6 11.2-10.3 11.2h-8c0.5-0.6 0.7-1.4 0.7-2V30.6zM7.6 46.3c2.7 0 4.4-1.9 4.4-4.4 0-2.9-1.8-4.6-4.4-4.6V46.3z"/><path d="M33.1 31.1v6.6c-1-0.5-2.3-0.6-3.2-0.6h-3v2.3h1.8c0.7 0 1.4-0.2 2.1-0.4v5.8c-0.7-0.3-1.4-0.4-2.1-0.4h-1.9v2.5h3c0.9 0 2.2-0.1 3.2-0.6v6.6H19.6c0.5-0.6 0.7-1.4 0.7-2V33c0-0.6-0.2-1.4-0.7-2H33.1z"/><path d="M45.3 31.2c0.5 0 0.9-0.1 1.2-0.4V38c-0.8-1.4-2-2.4-3-2.4 -1.1 0-1.6 0.3-1.6 1.2 0 0.9 0.8 1.4 2.7 2.5 2.2 1.3 4.4 3.1 4.4 7 0 4.5-3.2 7.1-8 7.1 -1.5 0-2.9-0.6-4-0.6 -0.6 0-1.2 0.1-1.7 0.4v-8.8c2.1 2.5 3.7 3.4 5.2 3.4 0.8 0 1.7-0.5 1.7-1.4 0-1.5-2.2-2.4-3.8-3.6 -1.6-1.2-3.3-2.7-3.3-5.7 0-4.1 2.7-6.4 7.2-6.4C43.5 30.6 44.8 31.2 45.3 31.2z"/><path d="M58.8 31.1c-0.5 0.6-0.7 1.4-0.7 2v17.9c0 0.6 0.2 1.3 0.7 2h-8.3c0.5-0.6 0.7-1.4 0.7-2V33c0-0.6-0.2-1.3-0.7-2H58.8z"/><path d="M73.2 30.8c0.5 0 1.2 0 1.8-0.2v8.3c-1-0.7-2.4-1.3-3.5-1.3 -2.6 0-4.3 2.1-4.3 4.5 0 2.5 1.9 4.4 4.3 4.4 0.6 0 1-0.1 1.4-0.4v-1.7h-2.2c-0.3 0-0.8 0.1-1.2 0.2v-5.3c0.4 0.2 0.9 0.2 1.2 0.2H79v8.8c0 0.5 0.2 1.1 0.6 1.9 -2.2 2.1-5.3 3.2-8.4 3.2 -6.3 0-11-5.3-11-11.5 0-6.1 4.8-11.3 10.8-11.3C71.9 30.6 72.5 30.8 73.2 30.8z"/><path d="M87.3 31.1l6.2 10.9 0.1-0.1V33c0-0.6-0.2-1.3-0.7-2h8c-0.5 0.6-0.7 1.4-0.7 2v17.9c0 0.6 0.2 1.3 0.7 2h-7l-6.2-11.2 -0.1 0.1v9.2c0 0.6 0.2 1.3 0.7 2h-8c0.5-0.6 0.7-1.4 0.7-2V33c0-0.6-0.2-1.3-0.7-2H87.3z"/></svg>
